<svg xmlns="http://www.w3.org/2000/svg" viewBox="0 0 646.5 178.5"><defs><style>.a{fill:#ed1c24;}.a,.b,.d{fill-rule:evenodd;}.b,.c{fill:#fff;}.d{fill:#1b3281;}</style></defs><title>E24</title><path class="a" d="M30.08,0H572.5V46.42A35.17,35.17,0,0,0,607.58,81.5H646.5v66.92a30.17,30.17,0,0,1-30.08,30.08H30.08A30.17,30.17,0,0,1,0,148.42V30.08A30.17,30.17,0,0,1,30.08,0"/><path class="b" d="M579,8H30.08A22.16,22.16,0,0,0,8,30.08V148.42A22.16,22.16,0,0,0,30.08,170.5H616.42a22.16,22.16,0,0,0,22.08-22.08v-75Zm-4,4H30.08a17.89,17.89,0,0,0-6.88,1.37,18.38,18.38,0,0,0-9.83,9.83A17.89,17.89,0,0,0,12,30.08V148.42a17.89,17.89,0,0,0,1.37,6.88,18.38,18.38,0,0,0,9.83,9.83,17.89,17.89,0,0,0,6.88,1.37H616.42a17.89,17.89,0,0,0,6.88-1.37,18.38,18.38,0,0,0,9.83-9.83,17.89,17.89,0,0,0,1.37-6.88v-71Z"/><polygon class="c" points="82.33 123.85 42.4 123.85 42.4 63.43 82.33 63.43 82.33 73.11 53.89 73.11 53.89 87.55 81.95 87.55 81.95 97.01 53.89 97.01 53.89 113.64 82.33 113.64 82.33 123.85"/><polygon class="c" points="132.92 73.87 116.21 73.87 116.21 123.85 104.33 123.85 104.33 73.87 87.62 73.87 87.62 63.43 132.92 63.43 132.92 73.87"/><rect class="c" x="140.48" y="63.43" width="11.72" height="60.42"/><polygon class="c" points="214.75 123.85 199.47 123.85 175.27 97.08 175.27 123.85 163.55 123.85 163.55 63.35 175.27 63.35 175.27 90.35 200 63.35 213.91 63.35 186.61 93.08 214.75 123.85"/><polygon class="c" points="259.97 123.85 220.04 123.85 220.04 63.43 259.97 63.43 259.97 73.11 231.53 73.11 231.53 87.55 259.59 87.55 259.59 97.01 231.53 97.01 231.53 113.64 259.97 113.64 259.97 123.85"/><polygon class="c" points="310.56 73.87 293.85 73.87 293.85 123.85 281.98 123.85 281.98 73.87 265.26 73.87 265.26 63.43 310.56 63.43 310.56 73.87"/><polygon class="c" points="373.1 63.43 348.45 99.13 348.45 123.93 336.57 123.93 336.57 98.97 313.21 63.43 326.82 63.43 342.55 88.84 358.96 63.43 373.1 63.43"/><path class="c" d="M417.42,123.85H373l23.29-27.6q1.36-1.66,2.76-3.44a35.87,35.87,0,0,0,2.54-3.67,22.42,22.42,0,0,0,1.81-3.74,10.48,10.48,0,0,0,.68-3.59,8.24,8.24,0,0,0-2.53-6.36,8.86,8.86,0,0,0-6.24-2.34,13.56,13.56,0,0,0-7.56,2.16,19.1,19.1,0,0,0-5.6,5.55l-8.17-8.09A29.26,29.26,0,0,1,383,64.94a26.32,26.32,0,0,1,12.55-2.72,24.84,24.84,0,0,1,7.6,1.17,19.68,19.68,0,0,1,6.54,3.52,17.44,17.44,0,0,1,4.62,5.82,17.69,17.69,0,0,1,1.74,8,19.46,19.46,0,0,1-.84,5.75A27.41,27.41,0,0,1,413,91.75a39.34,39.34,0,0,1-3.29,5q-1.89,2.46-3.93,5l-8.62,10.74h20.27Z"/><path class="c" d="M447.59,100.71V80.6l-15.35,20Zm20.12,10.06h-8.55v13.08H447.59V110.77H419.68v-8.32l29.42-39h10.06v37.28h8.55Z"/><rect class="c" x="474.51" y="112.28" width="11.57" height="11.57"/><path class="c" d="M550.44,113a33.68,33.68,0,0,1-11,8.78A31.36,31.36,0,0,1,525.18,125a32.78,32.78,0,0,1-22.89-9.15,31.38,31.38,0,0,1-6.88-10,31.2,31.2,0,0,1,0-24.57,31.46,31.46,0,0,1,17.14-16.68,33,33,0,0,1,12.63-2.42,31.23,31.23,0,0,1,14.25,3.25,32.88,32.88,0,0,1,10.78,8.47l-8.09,8.32a21.33,21.33,0,0,0-7.22-6.47A20.49,20.49,0,0,0,517.2,75a21.54,21.54,0,0,0-6.54,4.39,20.55,20.55,0,0,0-4.42,6.43,19.43,19.43,0,0,0,0,15.58,20.62,20.62,0,0,0,4.42,6.42,21.36,21.36,0,0,0,6.54,4.39,19.91,19.91,0,0,0,8,1.63,19.21,19.21,0,0,0,9.91-2.54,22.6,22.6,0,0,0,7.18-6.69Z"/><polygon class="c" points="603 63.35 573.73 112.28 602.77 112.28 602.77 123.85 553.54 123.85 583.49 73.79 554.67 73.87 554.67 63.35 603 63.35"/><path class="d" d="M577.5,0l69,76.5H607.58A30.17,30.17,0,0,1,577.5,46.42Z"/></svg>